<?xml version="1.0" encoding="utf-8"?>
<!-- Generator: Adobe Illustrator 18.1.0, SVG Export Plug-In . SVG Version: 6.00 Build 0)  -->
<!DOCTYPE svg PUBLIC "-//W3C//DTD SVG 1.1//EN" "http://www.w3.org/Graphics/SVG/1.1/DTD/svg11.dtd">
<svg version="1.1" xmlns="http://www.w3.org/2000/svg" xmlns:xlink="http://www.w3.org/1999/xlink" x="0px" y="0px"
	 viewBox="0 0 373.5 276" enable-background="new 0 0 373.5 276" xml:space="preserve">
<g id="Background">
</g>
<g id="Objects">
	<g>
		<g>
			<polygon fill-rule="evenodd" clip-rule="evenodd" fill="#F7931E" points="35,10.5 35,253.2 35,254.1 35,262.9 41,267.8 
				51.7,259.3 62.1,267.8 72.7,259.3 83.2,267.8 93.8,259.3 104.2,267.8 114.9,259 126.7,267.6 137.4,259.2 147.8,267.6 
				158.5,259.2 168.9,267.7 179.6,259.2 190,267.7 200.7,259.2 211.1,267.7 221.7,259.2 232.1,267.7 242.8,259.2 253.2,267.7 
				263.9,259.3 274.3,267.7 285,259.3 295.4,267.7 306.1,259.3 316.5,267.8 327.2,259.3 337.6,267.8 343.4,263.1 343.4,254.1 
				343.4,253.2 343.4,10.5 			"/>
			<polygon fill="#C9D342" points="11.4,137.5 365.9,75.5 367.1,140.7 11.4,202.7 			"/>
			<polygon fill="#423F40" points="365.9,75.5 343.4,69.6 343.4,79.4 			"/>
			<polygon fill="#423F40" points="11.4,202.7 35,208.4 35,198.6 			"/>
			
				<text transform="matrix(0.9858 -0.1676 0.1676 0.9858 39.6442 181.2534)" fill="#FFFFFF" font-family="'ArialMT'" font-size="39">SAVE UP TO 20%</text>
			<g>
				
					<text transform="matrix(0.9833 -0.1821 0.1821 0.9833 61.8669 97.3294)" fill="#FFFFFF" font-family="'Pacifico'" font-size="32.7832">New Site Offer!</text>
			</g>
			<g>
				<text transform="matrix(1 0 0 1 127.0046 236.0087)" fill="#423F40" font-family="'Pacifico'" font-size="32.7831">Code: newsite</text>
			</g>
			<g>
				<polygon fill="#423F40" points="307,71.8 279,71.8 279.6,69.2 280.3,43.5 305.8,43.5 306.5,69.5 				"/>
				<path fill="#423F40" d="M302.2,45.5c-0.3,0-0.5-0.2-0.5-0.5c0-7.8-3.9-14.1-8.6-14.1c-4.8,0-8.7,6.3-8.7,14.1
					c0,0.3-0.2,0.5-0.5,0.5c-0.3,0-0.5-0.2-0.5-0.5c0-8.3,4.4-15.1,9.7-15.1c5.3,0,9.7,6.8,9.7,15.1
					C302.7,45.3,302.5,45.5,302.2,45.5z"/>
			</g>
			<g>
				<g>
					<path fill="#F67480" d="M297.6,58.3c-1.7,2.5-4.7,3.5-4.7,3.5s-2.6-1-4.6-3.4c-0.7-0.9-0.7-1.8-0.7-2.6c0-1.6,1.2-2.9,2.7-3
						c1.5,0,2.6,1.3,2.6,2.9h0c0-1.6,1.2-2.9,2.7-2.9c1.5,0,2.7,1.3,2.6,2.9C298.4,56.4,298.4,57.2,297.6,58.3z"/>
				</g>
			</g>
		</g>
	</g>
</g>
</svg>
